# xmcd
#
# Track frame offsets:
#	150
#	5591
#	17581
#	35223
#	46532
#	64395
#	82645
#	104502
#	124425
#	144354
#	163424
#	175303
#
# Disc length: 2581
#
# Revision: 1
# Processed by: cddbd v1.5.1PL0 Copyright (c) Steve Scherf et al.
# Submitted via: dBpowerAMP V4.0
# Normalized: r0:TRMNUM
#
DISCID=9f0a130c
DTITLE=Thom Hell - I love You
DYEAR=2004
DGENRE=Pop
TTITLE0=intro
TTITLE1=Mourning Sun
TTITLE2=i need your love
TTITLE3=can you still feel me
TTITLE4=tired
TTITLE5=some guy
TTITLE6=so you're leaving
TTITLE7=why do i feel
TTITLE8=broken pigeon wings
TTITLE9=movin' slow
TTITLE10=honey
TTITLE11=perfect feeling/my love
EXTD=
EXTT0=
EXTT1=
EXTT2=
EXTT3=
EXTT4=
EXTT5=
EXTT6=
EXTT7=
EXTT8=
EXTT9=
EXTT10=
EXTT11=
PLAYORDER=
